<svg width="640" height="512" viewBox="0 0 640 512" fill="none" xmlns="http://www.w3.org/2000/svg">
<g clip-path="url(#clip0_2110_4828)">
<path d="M224 256C249.316 256 274.063 248.493 295.113 234.428C316.162 220.363 332.569 200.372 342.257 176.984C351.945 153.595 354.479 127.858 349.541 103.029C344.602 78.1989 332.411 55.3915 314.51 37.4904C296.609 19.5893 273.801 7.39845 248.972 2.45954C224.142 -2.47937 198.405 0.05546 175.017 9.74348C151.628 19.4315 131.637 35.8376 117.572 56.8871C103.507 77.9366 96 102.684 96 128C96 161.948 109.486 194.505 133.49 218.51C157.495 242.514 190.052 256 224 256ZM320 320C320.072 309.311 322.859 298.816 328.1 289.5C323.3 289 318.6 288 313.6 288H296.9C274.042 298.541 249.171 304 224 304C198.829 304 173.958 298.541 151.1 288H134.4C98.7573 288.008 64.5768 302.171 39.3736 327.374C14.1705 352.577 0.00795329 386.757 0 422.4L0 464C0 476.73 5.05713 488.939 14.0589 497.941C23.0606 506.943 35.2696 512 48 512H328.9C323.149 502.311 320.077 491.267 320 480V320ZM608 288H576V208C576 186.783 567.571 166.434 552.569 151.432C537.566 136.429 517.217 128 496 128C474.783 128 454.434 136.429 439.431 151.432C424.429 166.434 416 186.783 416 208V288H384C375.513 288 367.374 291.371 361.373 297.373C355.371 303.374 352 311.513 352 320V480C352 488.487 355.371 496.626 361.373 502.627C367.374 508.629 375.513 512 384 512H608C616.487 512 624.626 508.629 630.627 502.627C636.629 496.626 640 488.487 640 480V320C640 311.513 636.629 303.374 630.627 297.373C624.626 291.371 616.487 288 608 288ZM496 432C489.671 432 483.484 430.123 478.222 426.607C472.959 423.091 468.858 418.093 466.436 412.246C464.014 406.399 463.38 399.965 464.615 393.757C465.85 387.55 468.897 381.848 473.373 377.373C477.848 372.897 483.55 369.85 489.757 368.615C495.965 367.38 502.399 368.014 508.246 370.436C514.093 372.858 519.091 376.959 522.607 382.222C526.123 387.484 528 393.671 528 400C528 408.487 524.629 416.626 518.627 422.627C512.626 428.629 504.487 432 496 432ZM528 288H464V208C464 199.513 467.371 191.374 473.373 185.373C479.374 179.371 487.513 176 496 176C504.487 176 512.626 179.371 518.627 185.373C524.629 191.374 528 199.513 528 208V288Z" fill="white"/>
</g>
<defs>
<clipPath id="clip0_2110_4828">
<rect width="640" height="512" fill="white"/>
</clipPath>
</defs>
</svg>
