<svg width="68" height="47" viewBox="0 0 68 47" fill="none" xmlns="http://www.w3.org/2000/svg">
<path fill-rule="evenodd" clip-rule="evenodd" d="M10.6665 0.333008C8.01434 0.333008 5.4708 1.38658 3.59544 3.26194C1.72007 5.1373 0.666504 7.68084 0.666504 10.333V36.9997C0.666504 39.6518 1.72007 42.1954 3.59544 44.0707C5.4708 45.9461 8.01434 46.9997 10.6665 46.9997H43.9998C46.652 46.9997 49.1955 45.9461 51.0709 44.0707C52.9463 42.1954 53.9998 39.6518 53.9998 36.9997V31.713L61.6432 39.3563C62.1093 39.8224 62.7032 40.1397 63.3497 40.2683C63.9962 40.3968 64.6664 40.3308 65.2754 40.0786C65.8843 39.8264 66.4049 39.3992 66.7712 38.8512C67.1375 38.3032 67.333 37.6588 67.3332 36.9997V10.333C67.333 9.67384 67.1375 9.02951 66.7712 8.48148C66.4049 7.93345 65.8843 7.50632 65.2754 7.25408C64.6664 7.00185 63.9962 6.93584 63.3497 7.0644C62.7032 7.19295 62.1093 7.51031 61.6432 7.97634L53.9998 15.6197V10.333C53.9998 7.68084 52.9463 5.1373 51.0709 3.26194C49.1955 1.38658 46.652 0.333008 43.9998 0.333008H10.6665Z" fill="#3B9BA5"/>
</svg>
