<svg width="43" height="44" viewBox="0 0 43 44" fill="none" xmlns="http://www.w3.org/2000/svg">
<path d="M27.6431 12.441C28.9445 12.441 30.2167 12.0761 31.2988 11.3926C32.3809 10.7091 33.2243 9.73759 33.7223 8.60095C34.2203 7.46431 34.3506 6.21358 34.0968 5.00692C33.8429 3.80027 33.2162 2.69189 32.2959 1.82194C31.3757 0.951989 30.2032 0.359546 28.9268 0.119527C27.6504 -0.120491 26.3273 0.00269524 25.125 0.473508C23.9226 0.944321 22.8949 1.74162 22.1719 2.76457C21.4489 3.78752 21.0629 4.99018 21.0629 6.22048C21.0629 7.87025 21.7562 9.45245 22.9902 10.619C24.2242 11.7856 25.8979 12.441 27.6431 12.441ZM27.6431 2.48819C28.4239 2.48819 29.1872 2.70709 29.8365 3.1172C30.4858 3.5273 30.9918 4.11021 31.2906 4.79219C31.5894 5.47418 31.6676 6.22462 31.5153 6.94861C31.3629 7.6726 30.9869 8.33763 30.4348 8.8596C29.8826 9.38157 29.1791 9.73704 28.4133 9.88105C27.6474 10.0251 26.8536 9.95115 26.1322 9.66866C25.4108 9.38617 24.7942 8.90779 24.3604 8.29402C23.9265 7.68025 23.695 6.95865 23.695 6.22048C23.695 5.23061 24.111 4.28129 24.8514 3.58135C25.5918 2.88141 26.596 2.48819 27.6431 2.48819ZM42.2268 23.4014C42.0974 23.4574 40.6542 24.0504 38.0857 24.0504C35.0457 24.0504 30.4308 23.221 24.546 19.6961C23.6032 22.3575 22.3193 24.8999 20.723 27.2664C22.7913 27.8428 25.5484 28.8671 28.0028 30.6379C32.1307 33.6009 34.2232 37.665 34.2232 42.7139C34.2232 43.0439 34.0845 43.3603 33.8377 43.5936C33.5909 43.8269 33.2562 43.958 32.9072 43.958C32.5581 43.958 32.2234 43.8269 31.9766 43.5936C31.7298 43.3603 31.5911 43.0439 31.5911 42.7139C31.5911 33.5906 23.4252 30.443 19.1087 29.4208C18.9332 29.635 18.7533 29.8486 18.5691 30.0615C14.3468 34.8948 9.063 37.412 3.19134 37.412C2.5234 37.414 1.85577 37.3843 1.19099 37.3228C1.01816 37.3065 0.850436 37.2581 0.697383 37.1805C0.544329 37.1029 0.408945 36.9976 0.298961 36.8705C0.188978 36.7434 0.106548 36.5971 0.056378 36.4399C0.00620831 36.2827 -0.0107184 36.1177 0.00656387 35.9543C0.0238461 35.791 0.0749991 35.6324 0.157102 35.4877C0.239205 35.343 0.350651 35.215 0.485075 35.1111C0.756558 34.9011 1.10516 34.8017 1.45419 34.8347C7.29514 35.3862 12.3706 33.2464 16.538 28.4711C19.4245 25.166 21.3503 21.1081 22.2583 18.2799C13.373 13.1957 7.65266 17.2888 7.40481 17.4733C7.13121 17.6707 6.78669 17.7589 6.4451 17.7191C6.10352 17.6792 5.79205 17.5144 5.57746 17.26C5.36287 17.0056 5.26224 16.6819 5.29714 16.3582C5.33205 16.0345 5.4997 15.7366 5.76417 15.5284C5.84532 15.4662 7.82375 13.9878 11.195 13.4549C14.235 12.9759 19.0736 13.1853 24.8728 16.9114C35.2124 23.5466 41.0775 21.1558 41.1345 21.131C41.2918 21.0629 41.4617 21.0248 41.6345 21.0188C41.8074 21.0128 41.9798 21.039 42.1419 21.096C42.3041 21.153 42.4527 21.2396 42.5794 21.3509C42.7061 21.4622 42.8084 21.596 42.8804 21.7447C42.9524 21.8934 42.9928 22.054 42.9991 22.2174C43.0055 22.3808 42.9777 22.5438 42.9174 22.6971C42.8571 22.8503 42.7655 22.9909 42.6477 23.1107C42.53 23.2304 42.3885 23.3271 42.2312 23.3952L42.2268 23.4014Z" fill="black"/>
</svg>
