<svg width="138" height="146" viewBox="0 0 138 146" fill="none" xmlns="http://www.w3.org/2000/svg">
<circle cx="68.8225" cy="69.7283" r="58.9094" fill="url(#paint0_linear_3517_2634)"/>
<mask id="mask0_3517_2634" style="mask-type:alpha" maskUnits="userSpaceOnUse" x="18" y="19" width="102" height="102">
<circle cx="68.8226" cy="69.7283" r="50.4938" fill="url(#paint1_linear_3517_2634)"/>
</mask>
<g mask="url(#mask0_3517_2634)">
<rect x="9.91315" y="10.8188" width="29.4547" height="29.4547" fill="url(#paint2_linear_3517_2634)"/>
<rect x="39.3679" y="10.8188" width="29.4547" height="29.4547" fill="url(#paint3_linear_3517_2634)"/>
<rect x="68.8226" y="10.8188" width="29.4547" height="29.4547" fill="url(#paint4_linear_3517_2634)"/>
<rect x="98.2773" y="10.8188" width="29.4547" height="29.4547" fill="url(#paint5_linear_3517_2634)"/>
<rect x="9.91315" y="40.2736" width="29.4547" height="29.4547" fill="url(#paint6_linear_3517_2634)"/>
<rect x="68.8226" y="69.7283" width="29.4547" height="29.4547" fill="url(#paint7_linear_3517_2634)"/>
<rect x="9.91315" y="99.183" width="29.4547" height="29.4547" fill="url(#paint8_linear_3517_2634)"/>
<rect x="68.8226" y="40.2736" width="29.4547" height="29.4547" fill="url(#paint9_linear_3517_2634)"/>
<rect x="39.3679" y="69.7283" width="29.4547" height="29.4547" fill="url(#paint10_linear_3517_2634)"/>
<rect x="68.8226" y="99.183" width="29.4547" height="29.4547" fill="url(#paint11_linear_3517_2634)"/>
<rect x="39.3679" y="40.2736" width="29.4547" height="29.4547" fill="url(#paint12_linear_3517_2634)"/>
<rect x="98.2773" y="69.7283" width="29.4547" height="29.4547" fill="url(#paint13_linear_3517_2634)"/>
<rect x="39.3679" y="99.183" width="29.4547" height="29.4547" fill="url(#paint14_linear_3517_2634)"/>
<rect x="98.2773" y="40.2736" width="29.4547" height="29.4547" fill="url(#paint15_linear_3517_2634)"/>
<rect x="9.91315" y="69.7283" width="29.4547" height="29.4547" fill="url(#paint16_linear_3517_2634)"/>
<rect x="98.2773" y="99.183" width="29.4547" height="29.4547" fill="url(#paint17_linear_3517_2634)"/>
</g>
<g filter="url(#filter0_dii_3517_2634)">
<path d="M119.316 69.7283C119.316 97.6152 96.7095 120.222 68.8226 120.222C40.9356 120.222 18.3288 97.6152 18.3288 69.7283C18.3288 41.8413 40.9356 19.2345 68.8226 19.2345C96.7095 19.2345 119.316 41.8413 119.316 69.7283Z" fill="url(#paint18_linear_3517_2634)" shape-rendering="crispEdges"/>
</g>
<g filter="url(#filter1_d_3517_2634)">
<ellipse cx="68.8226" cy="90.7674" rx="33.6625" ry="21.0391" fill="url(#paint19_linear_3517_2634)" shape-rendering="crispEdges"/>
</g>
<circle cx="68.8226" cy="48.6892" r="16.8313" fill="url(#paint20_linear_3517_2634)"/>
<path fill-rule="evenodd" clip-rule="evenodd" d="M69 128.455C76.6741 128.455 84.0087 127.001 90.7431 124.354L103.155 131.52C103.938 131.972 104.902 131.972 105.685 131.52L120.683 122.86C121.466 122.408 121.948 121.573 121.948 120.669V103.351C121.948 102.447 121.466 101.612 120.683 101.16L119.462 100.455C125.162 91.3311 128.455 80.5502 128.455 69C128.455 36.164 101.836 9.54504 69 9.54504C36.164 9.54504 9.54504 36.164 9.54504 69C9.54504 101.836 36.164 128.455 69 128.455ZM86.8917 116.346C81.3292 118.449 75.299 119.6 69 119.6C41.0544 119.6 18.4 96.9456 18.4 69C18.4 41.0544 41.0544 18.4 69 18.4C96.9456 18.4 119.6 41.0544 119.6 69C119.6 78.9371 116.736 88.2052 111.787 96.0235L105.685 92.5004C104.902 92.0485 103.938 92.0485 103.155 92.5004L88.1567 101.16C87.3739 101.612 86.8917 102.447 86.8917 103.351V116.346Z" fill="url(#paint21_linear_3517_2634)"/>
<mask id="mask1_3517_2634" style="mask-type:luminance" maskUnits="userSpaceOnUse" x="9" y="9" width="120" height="123">
<path fill-rule="evenodd" clip-rule="evenodd" d="M69 128.455C76.6741 128.455 84.0087 127.001 90.7431 124.354L103.155 131.52C103.938 131.972 104.902 131.972 105.685 131.52L120.683 122.86C121.466 122.408 121.948 121.573 121.948 120.669V103.351C121.948 102.447 121.466 101.612 120.683 101.16L119.462 100.455C125.162 91.3311 128.455 80.5502 128.455 69C128.455 36.164 101.836 9.54504 69 9.54504C36.164 9.54504 9.54504 36.164 9.54504 69C9.54504 101.836 36.164 128.455 69 128.455ZM86.8917 116.346C81.3292 118.449 75.299 119.6 69 119.6C41.0544 119.6 18.4 96.9456 18.4 69C18.4 41.0544 41.0544 18.4 69 18.4C96.9456 18.4 119.6 41.0544 119.6 69C119.6 78.9371 116.736 88.2052 111.787 96.0235L105.685 92.5004C104.902 92.0485 103.938 92.0485 103.155 92.5004L88.1567 101.16C87.3739 101.612 86.8917 102.447 86.8917 103.351V116.346Z" fill="white"/>
</mask>
<g mask="url(#mask1_3517_2634)">
<g style="mix-blend-mode:multiply" opacity="0.3">
<path fill-rule="evenodd" clip-rule="evenodd" d="M87.4 0L69.0001 68.9998L7.19902 33.2204L33.2206 7.19883L68.9998 68.9994L50.6 0H87.4ZM69.0001 68.9998L50.6 138H87.4L69.0001 68.9998ZM69.0001 68.9998L104.78 7.19889L130.801 33.2204L69.0001 68.9998ZM69.0001 68.9998L138 50.6V87.4L69.0001 68.9998ZM69.0001 68.9998L0 87.4L2.86102e-06 50.6L69.0001 68.9998ZM69.0001 68.9998L7.19896 104.78L33.2205 130.801L69.0001 68.9998Z" fill="#FFD640"/>
</g>
</g>
<path opacity="0.2" d="M19.7889 85.4232C26.6589 106.018 46.0955 120.865 68.9999 120.865C72.0783 120.865 75.0941 120.597 78.0251 120.082" stroke="#EDAA2F" stroke-width="2.53" stroke-linecap="round" stroke-linejoin="round"/>
<path opacity="0.6" d="M42.3853 113.525C50.166 118.186 59.2702 120.865 69 120.865" stroke="white" stroke-width="2.53" stroke-linecap="round" stroke-linejoin="round"/>
<path d="M22.9144 104.133C33.5959 118.156 50.3642 127.19 69.2187 127.19C72.4645 127.19 75.6484 126.922 78.7501 126.407" stroke="url(#paint22_linear_3517_2634)" stroke-width="2.53" stroke-linecap="round" stroke-linejoin="round"/>
<path opacity="0.4" d="M127.19 69C127.19 36.8625 101.137 10.81 68.9999 10.81C36.8624 10.81 10.8099 36.8625 10.8099 69" stroke="white" stroke-width="2.53" stroke-linecap="round" stroke-linejoin="round"/>
<path opacity="0.2" d="M21.442 48.2736C29.4409 29.9454 47.7244 17.135 68.9999 17.135C90.2755 17.135 108.559 29.9454 116.558 48.2736" stroke="#DA731B" stroke-width="2.53" stroke-linecap="round" stroke-linejoin="round"/>
<path opacity="0.2" d="M42.3853 24.4753C50.166 19.8143 59.2702 17.135 69 17.135C78.7299 17.135 87.834 19.8143 95.6148 24.4753" stroke="#DA731B" stroke-width="2.53" stroke-linecap="round" stroke-linejoin="round"/>
<path opacity="0.4" d="M109.89 96.5275C108.386 95.6589 105.377 93.9217 105.377 93.9217C104.79 93.5827 104.066 93.5827 103.479 93.9217C101.715 94.9401 100.466 95.6617 99.7297 96.0865C98.1985 96.9706 96.9486 97.6922 95.9801 98.2513C94.3137 99.2135 91.8139 100.657 88.481 102.581" stroke="white" stroke-width="2.53" stroke-linecap="round"/>
<path opacity="0.4" d="M120.865 112.769V120.761C120.865 121.216 120.62 121.636 120.224 121.861L105.377 130.283C104.79 130.622 104.066 130.622 103.479 130.283C101.715 129.265 100.465 128.543 99.7296 128.118C98.1984 127.234 96.9485 126.513 95.98 125.954" stroke="#FDB115" stroke-width="2.53" stroke-linecap="round" stroke-linejoin="round"/>
<path d="M103.479 93.9217C101.715 94.9401 100.465 95.6617 99.7297 96.0865" stroke="white" stroke-width="2.53" stroke-linecap="round"/>
<g filter="url(#filter2_d_3517_2634)">
<path fill-rule="evenodd" clip-rule="evenodd" d="M87.6701 105.875L87.1227 105.659C86.7878 105.527 86.6235 105.148 86.7555 104.813C86.8218 104.645 86.9547 104.512 87.1227 104.446L87.6701 104.23C88.3015 103.981 88.8012 103.482 89.0502 102.85L89.2661 102.303C89.3982 101.968 89.7767 101.804 90.1115 101.936C90.2795 102.002 90.4124 102.135 90.4787 102.303L90.6946 102.85C90.9436 103.482 91.4433 103.981 92.0747 104.23L92.6221 104.446C92.957 104.578 93.1213 104.957 92.9893 105.292C92.923 105.46 92.7901 105.592 92.6221 105.659L92.0747 105.875C91.4433 106.124 90.9436 106.623 90.6946 107.255L90.4787 107.802C90.3466 108.137 89.9681 108.301 89.6333 108.169C89.4653 108.103 89.3324 107.97 89.2661 107.802L89.0502 107.255C88.8012 106.623 88.3015 106.124 87.6701 105.875Z" fill="white"/>
</g>
<g filter="url(#filter3_d_3517_2634)">
<path fill-rule="evenodd" clip-rule="evenodd" d="M118.222 102.877L117.565 102.618C117.164 102.459 116.966 102.005 117.125 101.603C117.204 101.402 117.364 101.242 117.565 101.163L118.222 100.903C118.98 100.605 119.58 100.005 119.878 99.2473L120.137 98.5904C120.296 98.1886 120.75 97.9913 121.152 98.1498C121.353 98.2293 121.513 98.3888 121.593 98.5904L121.852 99.2473C122.15 100.005 122.75 100.605 123.508 100.903L124.165 101.163C124.566 101.321 124.764 101.775 124.605 102.177C124.526 102.379 124.366 102.538 124.165 102.618L123.508 102.877C122.75 103.175 122.15 103.775 121.852 104.533L121.593 105.19C121.434 105.591 120.98 105.789 120.578 105.63C120.377 105.551 120.217 105.391 120.137 105.19L119.878 104.533C119.58 103.775 118.98 103.175 118.222 102.877Z" fill="white"/>
</g>
<path fill-rule="evenodd" clip-rule="evenodd" d="M104.42 118.841L99.467 120.602C98.6296 120.9 97.7542 120.264 97.7787 119.376L97.9232 114.121L94.7176 109.955C94.1756 109.25 94.51 108.221 95.3625 107.97L100.405 106.484L103.376 102.148C103.879 101.414 104.961 101.414 105.463 102.148L108.435 106.484L113.477 107.97C114.33 108.221 114.664 109.25 114.122 109.955L110.917 114.121L111.061 119.376C111.085 120.264 110.21 120.9 109.373 120.602L104.42 118.841Z" fill="url(#paint23_linear_3517_2634)" stroke="white" stroke-width="2.53" stroke-linecap="round" stroke-linejoin="round"/>
<g filter="url(#filter4_d_3517_2634)">
<path fill-rule="evenodd" clip-rule="evenodd" d="M86.5973 124.382L85.9403 124.122C85.5385 123.964 85.3413 123.51 85.4998 123.108C85.5792 122.906 85.7388 122.747 85.9403 122.667L86.5973 122.408C87.3549 122.11 87.9546 121.51 88.2534 120.752L88.5125 120.095C88.671 119.693 89.1251 119.496 89.5269 119.655C89.7285 119.734 89.888 119.894 89.9675 120.095L90.2266 120.752C90.5254 121.51 91.1251 122.11 91.8827 122.408L92.5397 122.667C92.9415 122.826 93.1387 123.28 92.9803 123.682C92.9008 123.883 92.7412 124.043 92.5397 124.122L91.8827 124.382C91.1251 124.68 90.5254 125.28 90.2266 126.038L89.9675 126.695C89.8091 127.096 89.3549 127.294 88.9531 127.135C88.7515 127.056 88.592 126.896 88.5125 126.695L88.2534 126.038C87.9546 125.28 87.3549 124.68 86.5973 124.382Z" fill="white"/>
</g>
<g filter="url(#filter5_d_3517_2634)">
<path fill-rule="evenodd" clip-rule="evenodd" d="M116.381 121.991L116.053 121.861C115.852 121.782 115.753 121.555 115.832 121.354C115.872 121.253 115.952 121.173 116.053 121.134L116.381 121.004C116.76 120.855 117.06 120.555 117.209 120.176L117.339 119.848C117.418 119.647 117.645 119.548 117.846 119.627C117.947 119.667 118.026 119.747 118.066 119.848L118.196 120.176C118.345 120.555 118.645 120.855 119.024 121.004L119.352 121.134C119.553 121.213 119.652 121.44 119.572 121.641C119.533 121.742 119.453 121.821 119.352 121.861L119.024 121.991C118.645 122.14 118.345 122.44 118.196 122.819L118.066 123.147C117.987 123.348 117.76 123.447 117.559 123.368C117.458 123.328 117.378 123.248 117.339 123.147L117.209 122.819C117.06 122.44 116.76 122.14 116.381 121.991Z" fill="white"/>
</g>
<defs>
<filter id="filter0_dii_3517_2634" x="1.49753" y="10.8189" width="134.65" height="134.65" filterUnits="userSpaceOnUse" color-interpolation-filters="sRGB">
<feFlood flood-opacity="0" result="BackgroundImageFix"/>
<feColorMatrix in="SourceAlpha" type="matrix" values="0 0 0 0 0 0 0 0 0 0 0 0 0 0 0 0 0 0 127 0" result="hardAlpha"/>
<feOffset dy="8.41563"/>
<feGaussianBlur stdDeviation="8.41563"/>
<feComposite in2="hardAlpha" operator="out"/>
<feColorMatrix type="matrix" values="0 0 0 0 0.0705882 0 0 0 0 0.666667 0 0 0 0 0.709804 0 0 0 0.05 0"/>
<feBlend mode="normal" in2="BackgroundImageFix" result="effect1_dropShadow_3517_2634"/>
<feBlend mode="normal" in="SourceGraphic" in2="effect1_dropShadow_3517_2634" result="shape"/>
<feColorMatrix in="SourceAlpha" type="matrix" values="0 0 0 0 0 0 0 0 0 0 0 0 0 0 0 0 0 0 127 0" result="hardAlpha"/>
<feOffset dy="-8.41563"/>
<feGaussianBlur stdDeviation="8.41563"/>
<feComposite in2="hardAlpha" operator="arithmetic" k2="-1" k3="1"/>
<feColorMatrix type="matrix" values="0 0 0 0 0.0705882 0 0 0 0 0.666667 0 0 0 0 0.709804 0 0 0 1 0"/>
<feBlend mode="normal" in2="shape" result="effect2_innerShadow_3517_2634"/>
<feColorMatrix in="SourceAlpha" type="matrix" values="0 0 0 0 0 0 0 0 0 0 0 0 0 0 0 0 0 0 127 0" result="hardAlpha"/>
<feOffset dy="4.20782"/>
<feGaussianBlur stdDeviation="2.10391"/>
<feComposite in2="hardAlpha" operator="arithmetic" k2="-1" k3="1"/>
<feColorMatrix type="matrix" values="0 0 0 0 0.0705882 0 0 0 0 0.666667 0 0 0 0 0.709804 0 0 0 0.4 0"/>
<feBlend mode="normal" in2="effect2_innerShadow_3517_2634" result="effect3_innerShadow_3517_2634"/>
</filter>
<filter id="filter1_d_3517_2634" x="26.7444" y="65.5205" width="84.1563" height="58.9095" filterUnits="userSpaceOnUse" color-interpolation-filters="sRGB">
<feFlood flood-opacity="0" result="BackgroundImageFix"/>
<feColorMatrix in="SourceAlpha" type="matrix" values="0 0 0 0 0 0 0 0 0 0 0 0 0 0 0 0 0 0 127 0" result="hardAlpha"/>
<feOffset dy="4.20782"/>
<feGaussianBlur stdDeviation="4.20782"/>
<feComposite in2="hardAlpha" operator="out"/>
<feColorMatrix type="matrix" values="0 0 0 0 0.0705882 0 0 0 0 0.666667 0 0 0 0 0.709804 0 0 0 1 0"/>
<feBlend mode="normal" in2="BackgroundImageFix" result="effect1_dropShadow_3517_2634"/>
<feBlend mode="normal" in="SourceGraphic" in2="effect1_dropShadow_3517_2634" result="shape"/>
</filter>
<filter id="filter2_d_3517_2634" x="84.4099" y="99.59" width="10.925" height="10.925" filterUnits="userSpaceOnUse" color-interpolation-filters="sRGB">
<feFlood flood-opacity="0" result="BackgroundImageFix"/>
<feColorMatrix in="SourceAlpha" type="matrix" values="0 0 0 0 0 0 0 0 0 0 0 0 0 0 0 0 0 0 127 0" result="hardAlpha"/>
<feOffset/>
<feGaussianBlur stdDeviation="1.15"/>
<feColorMatrix type="matrix" values="0 0 0 0 1 0 0 0 0 0.94902 0 0 0 0 0.305882 0 0 0 1 0"/>
<feBlend mode="normal" in2="BackgroundImageFix" result="effect1_dropShadow_3517_2634"/>
<feBlend mode="normal" in="SourceGraphic" in2="effect1_dropShadow_3517_2634" result="shape"/>
</filter>
<filter id="filter3_d_3517_2634" x="114.77" y="95.795" width="12.19" height="12.19" filterUnits="userSpaceOnUse" color-interpolation-filters="sRGB">
<feFlood flood-opacity="0" result="BackgroundImageFix"/>
<feColorMatrix in="SourceAlpha" type="matrix" values="0 0 0 0 0 0 0 0 0 0 0 0 0 0 0 0 0 0 127 0" result="hardAlpha"/>
<feOffset/>
<feGaussianBlur stdDeviation="1.15"/>
<feColorMatrix type="matrix" values="0 0 0 0 1 0 0 0 0 0.94902 0 0 0 0 0.305882 0 0 0 1 0"/>
<feBlend mode="normal" in2="BackgroundImageFix" result="effect1_dropShadow_3517_2634"/>
<feBlend mode="normal" in="SourceGraphic" in2="effect1_dropShadow_3517_2634" result="shape"/>
</filter>
<filter id="filter4_d_3517_2634" x="83.145" y="117.3" width="12.19" height="12.19" filterUnits="userSpaceOnUse" color-interpolation-filters="sRGB">
<feFlood flood-opacity="0" result="BackgroundImageFix"/>
<feColorMatrix in="SourceAlpha" type="matrix" values="0 0 0 0 0 0 0 0 0 0 0 0 0 0 0 0 0 0 127 0" result="hardAlpha"/>
<feOffset/>
<feGaussianBlur stdDeviation="1.15"/>
<feColorMatrix type="matrix" values="0 0 0 0 1 0 0 0 0 0.94902 0 0 0 0 0.305882 0 0 0 1 0"/>
<feBlend mode="normal" in2="BackgroundImageFix" result="effect1_dropShadow_3517_2634"/>
<feBlend mode="normal" in="SourceGraphic" in2="effect1_dropShadow_3517_2634" result="shape"/>
</filter>
<filter id="filter5_d_3517_2634" x="113.505" y="117.3" width="8.39498" height="8.39498" filterUnits="userSpaceOnUse" color-interpolation-filters="sRGB">
<feFlood flood-opacity="0" result="BackgroundImageFix"/>
<feColorMatrix in="SourceAlpha" type="matrix" values="0 0 0 0 0 0 0 0 0 0 0 0 0 0 0 0 0 0 127 0" result="hardAlpha"/>
<feOffset/>
<feGaussianBlur stdDeviation="1.15"/>
<feColorMatrix type="matrix" values="0 0 0 0 1 0 0 0 0 0.94902 0 0 0 0 0.305882 0 0 0 1 0"/>
<feBlend mode="normal" in2="BackgroundImageFix" result="effect1_dropShadow_3517_2634"/>
<feBlend mode="normal" in="SourceGraphic" in2="effect1_dropShadow_3517_2634" result="shape"/>
</filter>
<linearGradient id="paint0_linear_3517_2634" x1="68.8225" y1="10.8188" x2="68.8225" y2="128.638" gradientUnits="userSpaceOnUse">
<stop stop-color="#0E6B72"/>
<stop offset="1" stop-color="#053134"/>
</linearGradient>
<linearGradient id="paint1_linear_3517_2634" x1="68.8226" y1="19.2345" x2="68.8226" y2="120.222" gradientUnits="userSpaceOnUse">
<stop stop-color="#D9D9D9"/>
<stop offset="1" stop-color="white" stop-opacity="0"/>
</linearGradient>
<linearGradient id="paint2_linear_3517_2634" x1="39.3679" y1="39.5413" x2="18.3288" y2="19.2345" gradientUnits="userSpaceOnUse">
<stop stop-color="white" stop-opacity="0.4"/>
<stop offset="1" stop-color="white" stop-opacity="0.3"/>
</linearGradient>
<linearGradient id="paint3_linear_3517_2634" x1="68.8226" y1="39.5412" x2="47.7835" y2="19.2344" gradientUnits="userSpaceOnUse">
<stop stop-color="white" stop-opacity="0.3"/>
<stop offset="1" stop-color="white" stop-opacity="0.4"/>
</linearGradient>
<linearGradient id="paint4_linear_3517_2634" x1="98.2773" y1="39.5412" x2="77.2383" y2="19.2344" gradientUnits="userSpaceOnUse">
<stop stop-color="white" stop-opacity="0.4"/>
<stop offset="1" stop-color="white" stop-opacity="0.3"/>
</linearGradient>
<linearGradient id="paint5_linear_3517_2634" x1="127.732" y1="39.5412" x2="106.693" y2="19.2344" gradientUnits="userSpaceOnUse">
<stop stop-color="white" stop-opacity="0.3"/>
<stop offset="1" stop-color="white" stop-opacity="0.4"/>
</linearGradient>
<linearGradient id="paint6_linear_3517_2634" x1="39.3679" y1="68.996" x2="18.3288" y2="48.6892" gradientUnits="userSpaceOnUse">
<stop stop-color="white" stop-opacity="0.4"/>
<stop offset="1" stop-color="white" stop-opacity="0.3"/>
</linearGradient>
<linearGradient id="paint7_linear_3517_2634" x1="98.2773" y1="98.4507" x2="77.2383" y2="78.1439" gradientUnits="userSpaceOnUse">
<stop stop-color="white" stop-opacity="0.4"/>
<stop offset="1" stop-color="white" stop-opacity="0.3"/>
</linearGradient>
<linearGradient id="paint8_linear_3517_2634" x1="39.3679" y1="127.905" x2="18.3288" y2="107.599" gradientUnits="userSpaceOnUse">
<stop stop-color="white" stop-opacity="0.4"/>
<stop offset="1" stop-color="white" stop-opacity="0.3"/>
</linearGradient>
<linearGradient id="paint9_linear_3517_2634" x1="98.2773" y1="68.996" x2="77.2383" y2="48.6892" gradientUnits="userSpaceOnUse">
<stop stop-color="white" stop-opacity="0.3"/>
<stop offset="1" stop-color="white" stop-opacity="0.4"/>
</linearGradient>
<linearGradient id="paint10_linear_3517_2634" x1="68.8226" y1="98.4507" x2="47.7835" y2="78.1439" gradientUnits="userSpaceOnUse">
<stop stop-color="white" stop-opacity="0.3"/>
<stop offset="1" stop-color="white" stop-opacity="0.4"/>
</linearGradient>
<linearGradient id="paint11_linear_3517_2634" x1="98.2773" y1="127.905" x2="77.2383" y2="107.599" gradientUnits="userSpaceOnUse">
<stop stop-color="white" stop-opacity="0.3"/>
<stop offset="1" stop-color="white" stop-opacity="0.4"/>
</linearGradient>
<linearGradient id="paint12_linear_3517_2634" x1="68.8226" y1="68.996" x2="47.7835" y2="48.6892" gradientUnits="userSpaceOnUse">
<stop stop-color="white" stop-opacity="0.4"/>
<stop offset="1" stop-color="white" stop-opacity="0.3"/>
</linearGradient>
<linearGradient id="paint13_linear_3517_2634" x1="127.732" y1="98.4507" x2="106.693" y2="78.1439" gradientUnits="userSpaceOnUse">
<stop stop-color="white" stop-opacity="0.4"/>
<stop offset="1" stop-color="white" stop-opacity="0.3"/>
</linearGradient>
<linearGradient id="paint14_linear_3517_2634" x1="68.8226" y1="127.905" x2="47.7835" y2="107.599" gradientUnits="userSpaceOnUse">
<stop stop-color="white" stop-opacity="0.4"/>
<stop offset="1" stop-color="white" stop-opacity="0.3"/>
</linearGradient>
<linearGradient id="paint15_linear_3517_2634" x1="127.732" y1="68.996" x2="106.693" y2="48.6892" gradientUnits="userSpaceOnUse">
<stop stop-color="white" stop-opacity="0.3"/>
<stop offset="1" stop-color="white" stop-opacity="0.4"/>
</linearGradient>
<linearGradient id="paint16_linear_3517_2634" x1="39.3679" y1="98.4507" x2="18.3288" y2="78.1439" gradientUnits="userSpaceOnUse">
<stop stop-color="white" stop-opacity="0.3"/>
<stop offset="1" stop-color="white" stop-opacity="0.4"/>
</linearGradient>
<linearGradient id="paint17_linear_3517_2634" x1="127.732" y1="127.905" x2="106.693" y2="107.599" gradientUnits="userSpaceOnUse">
<stop stop-color="white" stop-opacity="0.3"/>
<stop offset="1" stop-color="white" stop-opacity="0.4"/>
</linearGradient>
<linearGradient id="paint18_linear_3517_2634" x1="68.8226" y1="19.2345" x2="68.8226" y2="120.222" gradientUnits="userSpaceOnUse">
<stop stop-color="#12AAB5" stop-opacity="0"/>
<stop offset="0.489442" stop-color="#12AAB5" stop-opacity="0.244721"/>
<stop offset="1" stop-color="#12AAB5" stop-opacity="0.5"/>
</linearGradient>
<linearGradient id="paint19_linear_3517_2634" x1="68.8226" y1="69.7283" x2="68.8226" y2="111.806" gradientUnits="userSpaceOnUse">
<stop stop-color="white"/>
<stop offset="1" stop-color="white" stop-opacity="0.3"/>
</linearGradient>
<linearGradient id="paint20_linear_3517_2634" x1="68.8226" y1="33.9618" x2="68.8226" y2="65.5204" gradientUnits="userSpaceOnUse">
<stop stop-color="white"/>
<stop offset="1" stop-color="white" stop-opacity="0.3"/>
</linearGradient>
<linearGradient id="paint21_linear_3517_2634" x1="9.54504" y1="9.54504" x2="9.54504" y2="131.859" gradientUnits="userSpaceOnUse">
<stop stop-color="#F9B800"/>
<stop offset="1" stop-color="#FDE046"/>
</linearGradient>
<linearGradient id="paint22_linear_3517_2634" x1="81.9892" y1="126.861" x2="81.7176" y2="102.43" gradientUnits="userSpaceOnUse">
<stop stop-color="#F8C417"/>
<stop offset="1" stop-color="#FFD937"/>
</linearGradient>
<linearGradient id="paint23_linear_3517_2634" x1="93.0349" y1="100.625" x2="93.0349" y2="123.395" gradientUnits="userSpaceOnUse">
<stop stop-color="#FCA50E"/>
<stop offset="1" stop-color="#FFC823"/>
</linearGradient>
</defs>
</svg>
