<svg width="21" height="19" viewBox="0 0 21 19" fill="none" xmlns="http://www.w3.org/2000/svg">
<path d="M3.74128 0.45099L10.6179 6.89848L17.4588 0.484397C17.6099 0.333595 17.7919 0.212959 17.994 0.129722C18.196 0.0464851 18.4139 0.00236243 18.6346 0C19.1071 0 19.5602 0.175981 19.8943 0.48923C20.2284 0.802478 20.4161 1.22733 20.4161 1.67033C20.4202 1.87512 20.3797 2.07854 20.297 2.26812C20.2143 2.45769 20.0911 2.62942 19.9351 2.77276L13.0051 9.18684L19.9351 15.6844C20.2287 15.9538 20.4009 16.3185 20.4161 16.7033C20.4161 17.1463 20.2284 17.5712 19.8943 17.8844C19.5602 18.1977 19.1071 18.3737 18.6346 18.3737C18.4075 18.3825 18.181 18.347 17.9694 18.2693C17.7578 18.1917 17.5657 18.0737 17.4054 17.9227L10.6179 11.4752L3.75909 17.906C3.60857 18.0518 3.42874 18.1681 3.22999 18.2484C3.03125 18.3287 2.81751 18.3713 2.60112 18.3737C2.12864 18.3737 1.67551 18.1977 1.34141 17.8844C1.00732 17.5712 0.819626 17.1463 0.819626 16.7033C0.815472 16.4986 0.855996 16.2951 0.93871 16.1056C1.02142 15.916 1.14458 15.7443 1.30063 15.6009L8.23065 9.18684L1.30063 2.68924C1.00701 2.41991 0.834839 2.0552 0.819626 1.67033C0.819626 1.22733 1.00732 0.802478 1.34141 0.48923C1.67551 0.175981 2.12864 0 2.60112 0C3.02868 0.005011 3.43843 0.167033 3.74128 0.45099Z" fill="#F24822"/>
</svg>
