<svg width="198" height="184" viewBox="0 0 198 184" fill="none" xmlns="http://www.w3.org/2000/svg">
<path d="M17.8665 147.752L17.3116 147.137L17.0261 147.915L8.26494 171.767L8.16084 172.051L8.36317 172.275L11.386 175.623L11.6085 175.869L11.9219 175.76L34.9563 167.715L35.6672 167.466L35.1626 166.907L17.8665 147.752ZM38.9214 165.268L39.2565 165.639L39.6276 165.304L173.879 44.0838L174.25 43.7487L173.915 43.3776L170.295 39.3684L169.96 38.9973L169.589 39.3324L35.3374 160.552L34.9663 160.888L35.3014 161.259L38.9214 165.268ZM32.888 158.586L33.2231 158.957L33.5942 158.622L167.846 37.4018L168.217 37.0667L167.882 36.6956L164.262 32.6865L163.927 32.3153L163.556 32.6504L29.304 153.87L28.9329 154.206L29.268 154.577L32.888 158.586ZM26.8547 151.904L27.1898 152.275L27.5609 151.94L161.812 30.7198L162.184 30.3848L161.848 30.0137L159.435 27.3409L159.1 26.9698L158.729 27.3048L24.4773 148.525L24.1062 148.86L24.4413 149.231L26.8547 151.904ZM22.028 146.558L22.3631 146.929L22.7342 146.594L156.986 25.3743L157.357 25.0392L157.022 24.6681L154.608 21.9953L154.273 21.6242L153.902 21.9593L19.6506 143.179L19.2795 143.514L19.6146 143.886L22.028 146.558ZM157.531 18.683L157.16 19.0181L157.495 19.3892L176.801 40.7716L177.136 41.1427L177.508 40.8076L191.279 28.3729C191.894 27.8177 191.942 26.8692 191.387 26.2543L173.421 6.35642C172.865 5.74155 171.917 5.69317 171.302 6.24835L157.531 18.683ZM15.6035 143.329L173.187 1.04155C173.392 0.856481 173.708 0.872614 173.894 1.07757L196.687 26.3211C196.872 26.526 196.856 26.8422 196.651 27.0272L39.1497 169.24L1.22068 182.487L15.6035 143.329Z" fill="black" stroke="black"/>
</svg>
