<svg width="37" height="30" viewBox="0 0 46 38" fill="none" xmlns="http://www.w3.org/2000/svg">
<path d="M1.33613 23.7591C0.46183 22.3015 0 20.6338 0 18.9341C0 17.2344 0.46183 15.5666 1.33613 14.1091C1.60499 13.6604 1.96474 13.2729 2.39228 12.9715C2.81981 12.6701 3.30567 12.4615 3.81863 12.3591L8.05113 11.5116C8.30355 11.4616 8.53121 11.3266 8.69613 11.1291L13.8661 4.92158C16.8211 1.37158 18.3011 -0.400924 19.6186 0.0765762C20.9411 0.554076 20.9411 2.86408 20.9411 7.48408V30.3891C20.9411 35.0066 20.9411 37.3141 19.6211 37.7941C18.3036 38.2691 16.8236 36.4966 13.8686 32.9491L8.69113 26.7391C8.52684 26.542 8.30015 26.4071 8.04863 26.3566L3.81613 25.5091C3.30317 25.4067 2.81731 25.198 2.38978 24.8967C1.96224 24.5953 1.60499 24.2078 1.33613 23.7591Z" fill="black"/>
<path d="M27.2812 10.0945C29.6138 12.427 30.9299 15.5869 30.9425 18.8856C30.9551 22.1843 29.6634 25.3542 27.3487 27.7045M37.5837 4.79199C41.3158 8.52366 43.4216 13.5792 43.4423 18.8568C43.4629 24.1345 41.3966 29.2063 37.6937 32.967" stroke="black" stroke-width="2" stroke-linecap="round"/>
</svg>
